<?xml version="1.0" encoding="UTF-8"?>
<svg version="1.1" xmlns="http://www.w3.org/2000/svg" width="694" height="516">
<path d="M0 0 C142.56 0 285.12 0 432 0 C432 20.13 432 40.26 432 61 C454.77 61 477.54 61 501 61 C501.33 84.1 501.66 107.2 502 131 C520.952773 130.96041925 520.952773 130.96041925 539.90551758 130.90991211 C542.27685501 130.90699223 544.64819295 130.90444384 547.01953125 130.90234375 C548.87499573 130.8946698 548.87499573 130.8946698 550.76794434 130.88684082 C552.5337384 130.88665955 552.5337384 130.88665955 554.33520508 130.88647461 C555.35890701 130.884254 556.38260895 130.88203339 557.43733215 130.87974548 C560 131 560 131 563 132 C563 217.47 563 302.94 563 391 C542.54 391 522.08 391 501 391 C501 411.46 501 431.92 501 453 C478.23 453 455.46 453 432 453 C432 473.79 432 494.58 432 516 C379.53 516 327.06 516 273 516 C273 495.21 273 474.42 273 453 C235.38 453 197.76 453 159 453 C159 473.79 159 494.58 159 516 C106.53 516 54.06 516 0 516 C0 495.21 0 474.42 0 453 C-22.77 453 -45.54 453 -69 453 C-69 432.54 -69 412.08 -69 391 C-89.46 391 -109.92 391 -131 391 C-131 305.2 -131 219.4 -131 131 C-110.87 131 -90.74 131 -70 131 C-69.67 107.9 -69.34 84.8 -69 61 C-46.23 61 -23.46 61 0 61 C0 40.87 0 20.74 0 0 Z M195 188 C195 200.54 195 213.08 195 226 C208.53 226 222.06 226 236 226 C236 213.79 236 201.58 236 189 C215.705 188.505 215.705 188.505 195 188 Z " fill="#CBCB0C" transform="translate(131,0)"/>
<path d="M0 0 C41.91 0 83.82 0 127 0 C127 44.88 127 89.76 127 136 C149.77 136 172.54 136 196 136 C196 157.45 196 178.9 196 201 C154.09 201 112.18 201 69 201 C69 222.12 69 243.24 69 265 C-34.62 265 -138.24 265 -245 265 C-245 243.88 -245 222.76 -245 201 C-286.91 201 -328.82 201 -372 201 C-372 179.88 -372 158.76 -372 137 C-349.23 137 -326.46 137 -303 137 C-303 114.89 -303 92.78 -303 70 C-284.52 70 -266.04 70 -247 70 C-247 91.78 -247 113.56 -247 136 C-223.24 136 -199.48 136 -175 136 C-175 114.22 -175 92.44 -175 70 C-117.58 70 -60.16 70 -1 70 C-1 91.78 -1 113.56 -1 136 C22.76 136 46.52 136 71 136 C71 114.22 71 92.44 71 70 C47.57 70 24.14 70 0 70 C0 46.9 0 23.8 0 0 Z M-109 126 C-109 138.54 -109 151.08 -109 164 C-95.47 164 -81.94 164 -68 164 C-68 151.79 -68 139.58 -68 127 C-88.295 126.505 -88.295 126.505 -109 126 Z " fill="#FCF277" transform="translate(435,62)"/>
<path d="M0 0 C0.33 0 0.66 0 1 0 C1 21.12 1 42.24 1 64 C123.76 64 246.52 64 373 64 C373 84.79 373 105.58 373 127 C353.86 127 334.72 127 315 127 C315 147.79 315 168.58 315 190 C282.33 190 249.66 190 216 190 C216 210.79 216 231.58 216 253 C215.67 253 215.34 253 215 253 C215 232.21 215 211.42 215 190 C177.38 190 139.76 190 101 190 C101 210.79 101 231.58 101 253 C100.67 253 100.34 253 100 253 C100 232.21 100 211.42 100 190 C67.33 190 34.66 190 1 190 C1 169.21 1 148.42 1 127 C-18.47 127 -37.94 127 -58 127 C-58 106.21 -58 85.42 -58 64 C-38.86 64 -19.72 64 0 64 C0 42.88 0 21.76 0 0 Z " fill="#C8C909" transform="translate(189,263)"/>
<path d="M0 0 C19.8 0 39.6 0 60 0 C63 3 63 3 63.36914349 5.38378429 C63.36499542 6.80657176 63.36499542 6.80657176 63.36076355 8.25810242 C63.36488754 9.34765228 63.36901154 10.43720215 63.3732605 11.55976868 C63.36247467 12.75522812 63.35168884 13.95068756 63.34057617 15.18237305 C63.34123329 17.07034607 63.34123329 17.07034607 63.34190369 18.99645996 C63.34276534 22.44877972 63.32511241 25.90078754 63.30418181 29.35303473 C63.28544318 32.96050423 63.2836668 36.56798068 63.28010559 40.17549133 C63.27077682 47.00720058 63.24615188 53.838766 63.21605712 60.67041188 C63.17627304 69.90172839 63.16006495 79.13308416 63.14255047 88.36446476 C63.11433129 102.90975092 63.05456749 117.45473358 63 132 C104.58 132 146.16 132 189 132 C189 153.12 189 174.24 189 196 C169.86 196 150.72 196 131 196 C131 216.79 131 237.58 131 259 C150.47 259 169.94 259 190 259 C190 279.79 190 300.58 190 322 C222.67 322 255.34 322 289 322 C289 342.79 289 363.58 289 385 C236.86 385 184.72 385 131 385 C131 364.21 131 343.42 131 322 C108.23 322 85.46 322 62 322 C62 301.54 62 281.08 62 260 C41.54 260 21.08 260 0 260 C0 174.2 0 88.4 0 0 Z " fill="#79A40D" transform="translate(0,131)"/>
<path d="M0 0 C1.15144501 -0.00315216 2.30289001 -0.00630432 3.48922729 -0.009552 C5.37038742 -0.00651566 5.37038742 -0.00651566 7.28955078 -0.00341797 C8.56839142 -0.00437469 9.84723206 -0.00533142 11.16482544 -0.00631714 C13.87682294 -0.00779413 16.58878756 -0.00564023 19.30078125 -0.00097656 C22.77671374 0.00470937 26.25256883 0.00144897 29.72849846 -0.00454903 C33.04052208 -0.00903414 36.35252496 -0.00589206 39.66455078 -0.00341797 C40.91460907 -0.0054422 42.16466736 -0.00746643 43.4526062 -0.009552 C44.61035553 -0.00639984 45.76810486 -0.00324768 46.9609375 0 C47.98162323 0.00079559 49.00230896 0.00159119 50.05392456 0.00241089 C52.60986328 0.12939453 52.60986328 0.12939453 55.60986328 1.12939453 C55.60986328 86.59939453 55.60986328 172.06939453 55.60986328 260.12939453 C35.14986328 260.12939453 14.68986328 260.12939453 -6.39013672 260.12939453 C-6.39013672 280.58939453 -6.39013672 301.04939453 -6.39013672 322.12939453 C-29.16013672 322.12939453 -51.93013672 322.12939453 -75.39013672 322.12939453 C-75.39013672 342.91939453 -75.39013672 363.70939453 -75.39013672 385.12939453 C-127.53013672 385.12939453 -179.67013672 385.12939453 -233.39013672 385.12939453 C-233.39013672 364.33939453 -233.39013672 343.54939453 -233.39013672 322.12939453 C-200.72013672 322.12939453 -168.05013672 322.12939453 -134.39013672 322.12939453 C-134.39013672 301.33939453 -134.39013672 280.54939453 -134.39013672 259.12939453 C-115.25013672 259.12939453 -96.11013672 259.12939453 -76.39013672 259.12939453 C-76.39013672 238.33939453 -76.39013672 217.54939453 -76.39013672 196.12939453 C-95.53013672 196.12939453 -114.67013672 196.12939453 -134.39013672 196.12939453 C-134.39013672 175.00939453 -134.39013672 153.88939453 -134.39013672 132.12939453 C-92.15013672 132.12939453 -49.91013672 132.12939453 -6.39013672 132.12939453 C-6.40173828 122.68443359 -6.41333984 113.23947266 -6.42529297 103.50830078 C-6.43039943 97.54280572 -6.43525444 91.57731223 -6.43896484 85.61181641 C-6.44490791 76.13256288 -6.4519098 66.65331822 -6.46557617 57.17407227 C-6.47552278 50.27164816 -6.48199009 43.36923122 -6.48422521 36.46680015 C-6.48553236 32.80978792 -6.48861846 29.15279617 -6.49586678 25.49579048 C-6.5038802 21.41995447 -6.50412787 17.3441544 -6.50366211 13.26831055 C-6.50725739 12.04695908 -6.51085266 10.8256076 -6.51455688 9.56724548 C-6.51318222 8.46361664 -6.51180756 7.35998779 -6.51039124 6.22291565 C-6.51177392 4.77523977 -6.51177392 4.77523977 -6.51318455 3.29831791 C-6.27130289 -0.9652501 -3.67935653 0.00287242 0 0 Z " fill="#78A30D" transform="translate(638.39013671875,130.87060546875)"/>
<path d="M0 0 C141.9 0 283.8 0 430 0 C430 20.13 430 40.26 430 61 C288.1 61 146.2 61 0 61 C0 40.87 0 20.74 0 0 Z " fill="#7AA50D" transform="translate(132,0)"/>
<path d="M0 0 C41.91 0 83.82 0 127 0 C127.74816585 45.35755474 128.09713748 90.63679833 128 136 C104.24 136 80.48 136 56 136 C56 114.22 56 92.44 56 70 C37.52 70 19.04 70 0 70 C0 46.9 0 23.8 0 0 Z " fill="#FBF06A" transform="translate(132,62)"/>
<path d="M0 0 C13.86 0 27.72 0 42 0 C42 10.56 42 21.12 42 32 C53.88 32 65.76 32 78 32 C78 45.2 78 58.4 78 72 C78.66 72 79.32 72 80 72 C80 83.88 80 95.76 80 108 C67.46 108 54.92 108 42 108 C42 119.22 42 130.44 42 142 C27.81 142 13.62 142 -1 142 C-1 130.78 -1 119.56 -1 108 C-13.21 108 -25.42 108 -38 108 C-38 96.12 -38 84.24 -38 72 C-37.34 72 -36.68 72 -36 72 C-36 59.13 -36 46.26 -36 33 C-24.45 33 -12.9 33 -1 33 C-1 45.87 -1 58.74 -1 72 C13.19 72 27.38 72 42 72 C42 59.13 42 46.26 42 33 C28.14 33 14.28 33 0 33 C0 22.11 0 11.22 0 0 Z " fill="#FDD03A" transform="translate(326,155)"/>
<path d="M0 0 C1.19824402 0.01281384 2.39648804 0.02562767 3.63104248 0.0388298 C18.65003323 0.20062656 33.66873189 0.37992661 48.6875 0.5625 C48.6875 21.3525 48.6875 42.1425 48.6875 63.5625 C-3.1225 63.5625 -54.9325 63.5625 -108.3125 63.5625 C-108.3125 42.7725 -108.3125 21.9825 -108.3125 0.5625 C-72.17888573 -0.4537579 -36.14185541 -0.38676986 0 0 Z " fill="#5B8B05" transform="translate(240.3125,452.4375)"/>
<path d="M0 0 C51.81 0 103.62 0 157 0 C157 20.79 157 41.58 157 63 C105.19 63 53.38 63 0 63 C0 42.21 0 21.42 0 0 Z " fill="#5A8A05" transform="translate(405,453)"/>
<path d="M0 0 C22.77 0 45.54 0 69 0 C69 23.43 69 46.86 69 71 C46.23 71 23.46 71 0 71 C0 47.57 0 24.14 0 0 Z " fill="#5E8E06" transform="translate(563,61)"/>
<path d="M0 0 C22.77 0 45.54 0 69 0 C69 23.43 69 46.86 69 71 C46.23 71 23.46 71 0 71 C0 47.57 0 24.14 0 0 Z " fill="#5D8E05" transform="translate(62,61)"/>
<path d="M0 0 C23.76 0 47.52 0 72 0 C72 21.78 72 43.56 72 66 C48.24 66 24.48 66 0 66 C0 44.22 0 22.44 0 0 Z " fill="#0E0D0C" transform="translate(188,132)"/>
<path d="M0 0 C23.76 0 47.52 0 72 0 C72 21.78 72 43.56 72 66 C48.24 66 24.48 66 0 66 C0 44.22 0 22.44 0 0 Z " fill="#0E0E0B" transform="translate(434,132)"/>
<path d="M0 0 C13.86 0 27.72 0 42 0 C42 10.56 42 21.12 42 32 C53.88 32 65.76 32 78 32 C78 45.2 78 58.4 78 72 C78.66 72 79.32 72 80 72 C80 83.55 80 95.1 80 107 C67.46 107 54.92 107 42 107 C42 82.58 42 58.16 42 33 C28.14 33 14.28 33 0 33 C0 22.11 0 11.22 0 0 Z " fill="#ECBA22" transform="translate(326,155)"/>
<path d="M0 0 C11.55 0 23.1 0 35 0 C35.71324788 24.69620771 36.10250975 49.29515025 36 74 C23.46 74 10.92 74 -2 74 C-2 62.45 -2 50.9 -2 39 C-1.34 39 -0.68 39 0 39 C0 26.13 0 13.26 0 0 Z " fill="#E9BB1D" transform="translate(290,188)"/>
<path d="M0 0 C13.86 0 27.72 0 42 0 C42 10.89 42 21.78 42 33 C28.14 33 14.28 33 0 33 C0 22.11 0 11.22 0 0 Z " fill="#FDA007" transform="translate(326,263)"/>
<path d="M0 0 C13.86 0 27.72 0 42 0 C42 10.89 42 21.78 42 33 C28.14 33 14.28 33 0 33 C0 22.11 0 11.22 0 0 Z " fill="#ECB41C" transform="translate(326,155)"/>
<path d="M0 0 C12.54 0 25.08 0 38 0 C38 11.55 38 23.1 38 35 C25.46 35 12.92 35 0 35 C0 23.45 0 11.9 0 0 Z " fill="#FD9F07" transform="translate(368,227)"/>
<path d="M0 0 C12.54 0 25.08 0 38 0 C38 11.55 38 23.1 38 35 C25.46 35 12.92 35 0 35 C0 23.45 0 11.9 0 0 Z " fill="#FDA207" transform="translate(288,227)"/>
</svg>
