<svg xmlns="http://www.w3.org/2000/svg" xmlns:xlink="http://www.w3.org/1999/xlink" xmlns:lucid="lucid" width="1722" height="1122"><g transform="translate(1761 -1099)" lucid:page-tab-id="0_0"><path d="M-2000 1000H0v1500h-2000z" fill="#fff"/><path d="M-1380 1106a6 6 0 0 1 6-6H-46a6 6 0 0 1 6 6v1108a6 6 0 0 1-6 6h-1328a6 6 0 0 1-6-6z" stroke="#000" stroke-width="2" fill="#f2f3f5"/><path d="M-800 1186a6 6 0 0 1 6-6h688a6 6 0 0 1 6 6v908a6 6 0 0 1-6 6h-688a6 6 0 0 1-6-6z" fill="#fff0fb"/><path d="M-774.06 1180h19.94m9.98 0h19.94m9.97 0h19.94m9.98 0h19.94m9.97 0h19.94m9.97 0h19.95m9.97 0h19.94m9.97 0h19.94m9.98 0h19.94m9.96 0h19.94m9.97 0H-455m10 0h19.93m9.97 0h19.94m9.97 0h19.95m9.98 0h19.94m9.97 0h19.94m9.97 0h19.94m9.96 0h19.95m9.98 0h19.94m9.97 0h19.93m9.97 0h19.95m9.97 0h19.94m9.97 0h9.97a6 6 0 0 1 6 6v10.1m0 10.08v20.18m0 10.08v20.18m0 10.1v20.17m0 10.08v20.18m0 10.08v20.18m0 10.1v20.17m0 10.08v20.18m0 10.08v20.18m0 10.1v20.17m0 10.08v20.18m0 10.08v20.18m0 10.1v20.17m0 10.08v20.18m0 10.08v20.18m0 10.1v20.17m0 10.08v20.18m0 10.08v20.18m0 10.1v20.17m0 10.08v20.18m0 10.08v20.18m0 10.1v20.17m0 10.08v20.18m0 10.08v20.18m0 10.1v20.17m0 10.08v20.18m0 10.08v20.18m0 10.1v20.17m0 10.08v20.18m0 10.08v20.18m0 10.1V2094a6 6 0 0 1-6 6h-9.97m-9.97 0h-19.94m-9.97 0h-19.95m-9.97 0h-19.94m-9.98 0h-19.94m-9.97 0h-19.94m-9.97 0h-19.95m-9.97 0h-19.94m-9.97 0h-19.94m-9.98 0h-19.94m-9.96 0h-19.94m-9.97 0H-445m-10 0h-19.93m-9.97 0h-19.94m-9.97 0h-19.95m-9.98 0h-19.94m-9.97 0h-19.94m-9.97 0h-19.94m-9.96 0h-19.95m-9.98 0h-19.94m-9.97 0h-19.93m-9.97 0h-19.94m-9.98 0h-19.94m-9.97 0H-794a6 6 0 0 1-6-6v-10.1m0-10.08v-20.18m0-10.08v-20.18m0-10.1v-20.17m0-10.08v-20.18m0-10.08v-20.18m0-10.1v-20.17m0-10.08v-20.18m0-10.08v-20.18m0-10.1v-20.17m0-10.08v-20.18m0-10.08v-20.18m0-10.1v-20.17m0-10.08v-20.18m0-10.08v-20.18m0-10.1v-20.17m0-10.08v-20.18m0-10.08v-20.18m0-10.1v-20.17m0-10.08v-20.18m0-10.08v-20.18m0-10.1v-20.17m0-10.08v-20.18m0-10.08v-20.18m0-10.1v-20.17m0-10.08v-20.18m0-10.08v-20.18m0-10.1v-20.17m0-10.08v-20.18m0-10.08v-20.18m0-10.1V1186a6 6 0 0 1 6-6h9.97" stroke="#000" stroke-width="2" fill="none"/><path d="M-840 1246a6 6 0 0 1 6-6h688a6 6 0 0 1 6 6v888a6 6 0 0 1-6 6h-688a6 6 0 0 1-6-6z" fill="#f7f4e4"/><path d="M-814.06 1240h19.94m9.98 0h19.94m9.97 0h19.94m9.98 0h19.94m9.97 0h19.94m9.97 0h19.95m9.97 0h19.94m9.97 0h19.94m9.98 0h19.94m9.96 0h19.94m9.97 0H-495m10 0h19.93m9.97 0h19.94m9.97 0h19.95m9.98 0h19.94m9.97 0h19.94m9.97 0h19.94m9.96 0h19.95m9.98 0h19.94m9.97 0h19.93m9.97 0h19.95m9.97 0h19.94m9.97 0h9.97a6 6 0 0 1 6 6v9.87m0 9.86v19.74m0 9.86v19.74m0 9.86v19.74m0 9.86v19.74m0 9.86v19.74m0 9.86v19.74m0 9.86v19.74m0 9.86v19.74m0 9.86v19.74m0 9.86v19.74m0 9.86v19.74m0 9.86v19.74m0 9.86v19.74m0 9.86v19.74m0 9.86v19.74m0 9.86v19.74m0 9.86v19.74m0 9.86v19.74m0 9.86v19.74m0 9.86v19.74m0 9.86v19.74m0 9.86v19.74m0 9.86v19.74m0 9.86v19.74m0 9.86v19.74m0 9.86v19.74m0 9.86v19.74m0 9.86v19.74m0 9.86v19.74m0 9.86v9.87a6 6 0 0 1-6 6h-9.97m-9.97 0h-19.94m-9.97 0h-19.95m-9.97 0h-19.94m-9.98 0h-19.94m-9.97 0h-19.94m-9.97 0h-19.95m-9.97 0h-19.94m-9.97 0h-19.94m-9.98 0h-19.94m-9.96 0h-19.94m-9.97 0H-485m-10 0h-19.93m-9.97 0h-19.94m-9.97 0h-19.95m-9.98 0h-19.94m-9.97 0h-19.94m-9.97 0h-19.94m-9.96 0h-19.95m-9.98 0h-19.94m-9.97 0h-19.93m-9.97 0h-19.94m-9.98 0h-19.94m-9.97 0H-834a6 6 0 0 1-6-6v-9.87m0-9.86v-19.74m0-9.86v-19.74m0-9.86v-19.74m0-9.86v-19.74m0-9.86v-19.74m0-9.86v-19.74m0-9.86v-19.74m0-9.86v-19.74m0-9.86v-19.74m0-9.86v-19.74m0-9.86v-19.74m0-9.86v-19.74m0-9.86v-19.74m0-9.86v-19.74m0-9.86v-19.74m0-9.86v-19.74m0-9.86v-19.74m0-9.86v-19.74m0-9.86v-19.74m0-9.86v-19.74m0-9.86v-19.74m0-9.86v-19.74m0-9.86v-19.74m0-9.86v-19.74m0-9.86v-19.74m0-9.86v-19.74m0-9.86v-19.74m0-9.86v-19.74m0-9.86v-19.74m0-9.86V1246a6 6 0 0 1 6-6h9.97" stroke="#000" stroke-width="2" fill="none"/><path d="M-900 1306a6 6 0 0 1 6-6h688a6 6 0 0 1 6 6v848a6 6 0 0 1-6 6h-688a6 6 0 0 1-6-6z" fill="#fff"/><path d="M-874.06 1300h19.94m9.98 0h19.94m9.97 0h19.94m9.98 0h19.94m9.97 0h19.94m9.97 0h19.95m9.97 0h19.94m9.97 0h19.94m9.98 0h19.94m9.96 0h19.94m9.97 0H-555m10 0h19.93m9.97 0h19.94m9.97 0h19.95m9.98 0h19.94m9.97 0h19.94m9.97 0h19.94m9.96 0h19.95m9.98 0h19.94m9.97 0h19.93m9.97 0h19.95m9.97 0h19.94m9.97 0h9.97a6 6 0 0 1 6 6v10.1m0 10.1v20.18m0 10.1v20.2m0 10.08v20.2m0 10.1v20.18m0 10.1v20.18m0 10.1v20.2m0 10.1v20.17m0 10.1v20.18m0 10.1v20.2m0 10.08v20.2m0 10.1v20.18m0 10.1v20.18m0 10.1v20.2m0 10.1v20.17m0 10.1v20.18m0 10.1v20.2m0 10.08v20.2m0 10.1v20.18m0 10.1v20.18m0 10.1v20.2m0 10.1v20.17m0 10.1v20.18m0 10.1v20.2m0 10.08v20.2m0 10.1v20.18m0 10.1v20.18m0 10.1v20.2m0 10.1V2154a6 6 0 0 1-6 6h-9.97m-9.97 0h-19.94m-9.97 0h-19.95m-9.97 0h-19.94m-9.98 0h-19.94m-9.97 0h-19.94m-9.97 0h-19.95m-9.97 0h-19.94m-9.97 0h-19.94m-9.98 0h-19.94m-9.96 0h-19.94m-9.97 0H-545m-10 0h-19.93m-9.97 0h-19.94m-9.97 0h-19.95m-9.98 0h-19.94m-9.97 0h-19.94m-9.97 0h-19.94m-9.96 0h-19.95m-9.98 0h-19.94m-9.97 0h-19.93m-9.97 0h-19.94m-9.98 0h-19.94m-9.97 0H-894a6 6 0 0 1-6-6v-10.1m0-10.1v-20.18m0-10.1v-20.2m0-10.08v-20.2m0-10.1v-20.18m0-10.1v-20.18m0-10.1v-20.2m0-10.1v-20.17m0-10.1v-20.18m0-10.1v-20.2m0-10.08v-20.2m0-10.1v-20.18m0-10.1v-20.18m0-10.1v-20.2m0-10.1v-20.17m0-10.1v-20.18m0-10.1v-20.2m0-10.08v-20.2m0-10.1v-20.18m0-10.1v-20.18m0-10.1v-20.2m0-10.1v-20.17m0-10.1v-20.18m0-10.1v-20.2m0-10.08v-20.2m0-10.1v-20.18m0-10.1v-20.18m0-10.1v-20.2m0-10.1v-10.08a6 6 0 0 1 6-6h9.97" stroke="#000" stroke-width="2" fill="none"/><path d="M-775 1386a6 6 0 0 1 6-6h118a6 6 0 0 1 6 6v96.6a6 6 0 0 1-6 6h-118a6 6 0 0 1-6-6z" stroke="#000" stroke-width="2" fill="#edf5ff"/><use xlink:href="#a" transform="matrix(1,0,0,1,-762.9999999999999,1392) translate(15.087673611111107 50.74652777777778)"/><path d="M-420 1386a6 6 0 0 1 6-6h118a6 6 0 0 1 6 6v96.6a6 6 0 0 1-6 6h-118a6 6 0 0 1-6-6z" stroke="#000" stroke-width="2" fill="#edf5ff"/><use xlink:href="#b" transform="matrix(1,0,0,1,-408,1392) translate(27.33810763888889 50.74652777777778)"/><path d="M-630 1791.66a6 6 0 0 1 6-6h118a6 6 0 0 1 6 6v96.6a6 6 0 0 1-6 6h-118a6 6 0 0 1-6-6z" stroke="#000" stroke-width="2" fill="#e3fae3"/><use xlink:href="#c" transform="matrix(1,0,0,1,-617.9999999999998,1797.6643356643358) translate(4.909722222222221 34.80902777777778)"/><use xlink:href="#d" transform="matrix(1,0,0,1,-617.9999999999998,1797.6643356643358) translate(19.194661458333336 67.07465277777777)"/><path d="M-585.83 1434.78h-57.67v-.95h57.67zm148.45 0h-71.6v-.95h71.6z" stroke="#3a414a" stroke-width=".05" fill="#3a414a"/><path d="M-643.5 1434.78h-.5v-.95h.5z" fill="#3a414a"/><path stroke="#3a414a" stroke-width=".05" fill="#3a414a"/><path d="M-422.62 1434.3l-14.26 4.64v-9.28z" fill="#3a414a"/><path d="M-421.08 1434.3l-16.28 5.3V1429zm-15.33 3.98l12.25-3.98-12.26-3.98z" stroke="#3a414a" stroke-width=".05" fill="#3a414a"/><use xlink:href="#e" transform="matrix(1,0,0,1,-585.8245760052872,1423.545491129614) translate(0 17.22222222222222)"/><use xlink:href="#f" transform="matrix(1,0,0,1,-585.8245760052872,1423.545491129614) translate(31.44965277777778 17.22222222222222)"/><path d="M-569.8 1580.73a8 8 0 0 1 9.6 0l70.4 52.8a4.5 4.5 0 0 1 0 7.2l-70.4 52.8a8 8 0 0 1-9.6 0l-70.4-52.8a4.5 4.5 0 0 1 0-7.2z" stroke="#000" stroke-width="2" fill="#fff"/><use xlink:href="#g" transform="matrix(1,0,0,1,-639.9999999999998,1582.1328671328672) translate(41.601137152777774 62.77777777777778)"/><path d="M-354.52 1627.85l-.08 1-.24.98-.4.94-.52.87-.66.77-.77.67-.86.53-.94.4-1 .23-.98.08h-110.76v-.94h110.72l.88-.07.85-.22.8-.33.75-.45.66-.56.57-.66.45-.74.33-.8.2-.85.07-.9v-31.86h.96zm0-53.42h-.96v-84.33h.96z" stroke="#3a414a" stroke-width=".05" fill="#3a414a"/><path d="M-354.52 1490.1h-.96v-.5h.96z" fill="#3a414a"/><path stroke="#3a414a" stroke-width=".05" fill="#3a414a"/><path d="M-472.24 1638.47l-14.27-4.64 14.26-4.63z" fill="#3a414a"/><path d="M-471.77 1639.12l-16.27-5.3 16.27-5.28zm-13.2-5.3l12.25 4v-7.97z" stroke="#3a414a" stroke-width=".05" fill="#3a414a"/><use xlink:href="#h" transform="matrix(1,0,0,1,-412.4045138888889,1574.4325696723402) translate(0 17.22222222222222)"/><use xlink:href="#i" transform="matrix(1,0,0,1,-412.4045138888889,1574.4325696723402) translate(51.08506944444444 17.22222222222222)"/><path d="M-709.02 1631.1l.06.82.18.76.3.73.42.68.5.6.6.52.68.4.73.3.76.2.84.06H-644v1.95h-60.04l-1.05-.07-1.06-.26-1-.42-.94-.57-.83-.7-.72-.85-.57-.93-.42-1-.25-1.08-.08-1.05v-54.83h1.96zm0-76.27H-711v-46.73h1.96z" stroke="#e81313" stroke-width=".05" fill="#e81313"/><path d="M-643 1637.13l.1.98h-1.13v-1.94h1.12z" fill="#e81313"/><path stroke="#e81313" stroke-width=".05" fill="#e81313"/><path d="M-705.37 1507.1h-9.26l4.63-14.26z" fill="#e81313"/><path d="M-704.02 1508.08h-11.96l5.98-18.4zm-9.27-1.95h6.6L-710 1496z" stroke="#e81313" stroke-width=".05" fill="#e81313"/><use xlink:href="#j" transform="matrix(1,0,0,1,-722.2265624999999,1554.8260132825806) translate(0 17.22222222222222)"/><path d="M-564.02 1766.16H-566v-15h1.96zm0-36.52H-566v-32.5h1.96z" stroke="#008a0e" stroke-width=".05" fill="#008a0e"/><path d="M-565 1696.13l.98-.06v1.1H-566v-1.1z" fill="#008a0e"/><path stroke="#008a0e" stroke-width=".05" fill="#008a0e"/><path d="M-565 1781.43l-4.63-14.27h9.26z" fill="#008a0e"/><path d="M-565 1784.58l-5.98-18.4h11.96zm-3.3-16.44l3.3 10.13 3.3-10.13z" stroke="#008a0e" stroke-width=".05" fill="#008a0e"/><use xlink:href="#k" transform="matrix(1,0,0,1,-580.7986111111109,1729.6444449104747) translate(0 17.22222222222222)"/><path d="M-569.8 1963.6a8 8 0 0 1 9.6 0l70.4 52.8a4.5 4.5 0 0 1 0 7.2l-70.4 52.8a8 8 0 0 1-9.6 0l-70.4-52.8a4.5 4.5 0 0 1 0-7.2z" stroke="#000" stroke-width="2" fill="#fff"/><use xlink:href="#l" transform="matrix(1,0,0,1,-639.9999999999998,1965) translate(28.50434895833334 62.77777777777778)"/><path d="M-380 1971.7a6 6 0 0 1 6-6h118a6 6 0 0 1 6 6v96.6a6 6 0 0 1-6 6h-118a6 6 0 0 1-6-6z" stroke="#000" stroke-width="2" fill="#fff"/><use xlink:href="#m" transform="matrix(1,0,0,1,-368,1977.6993006993007) translate(7.573567708333336 50.74652777777778)"/><path d="M-565 1895.77v48.84" stroke="#3a414a" fill="none"/><path d="M-564.52 1895.78h-.96v-.5h.96z" stroke="#3a414a" stroke-width=".05" fill="#3a414a"/><path d="M-565 1959.38l-4.63-14.27h9.26z" stroke="#3a414a" fill="#3a414a"/><path d="M-449.8 2020.97H-486v-1.94h36.2zm50.3 0h-18.7v-1.94h18.7z" stroke="#008a0e" stroke-width=".05" fill="#008a0e"/><path d="M-485.97 2020.97h-1.12l.1-.97-.1-.97h1.13z" fill="#008a0e"/><path stroke="#008a0e" stroke-width=".05" fill="#008a0e"/><path d="M-384.24 2020l-14.26 4.63v-9.27z" fill="#008a0e"/><path d="M-381.08 2020l-18.4 5.98v-11.96zm-16.45 3.3l10.14-3.3-10.13-3.3z" stroke="#008a0e" stroke-width=".05" fill="#008a0e"/><use xlink:href="#k" transform="matrix(1,0,0,1,-449.79644964398,2009.2447916666667) translate(0 17.22222222222222)"/><path d="M-1200 1449.6c0 6.63-26.86 12-60 12s-60-5.37-60-12v-96c0-6.62 26.86-12 60-12s60 5.38 60 12z" stroke="#000" stroke-width="2" fill="#fff"/><path d="M-1200 1353.6c0 6.63-26.86 12-60 12s-60-5.37-60-12" stroke="#000" stroke-width="2" fill="none"/><use xlink:href="#n" transform="matrix(1,0,0,1,-1315,1370.6052812352239) translate(3.8715277777777857 34.950954861111114)"/><use xlink:href="#o" transform="matrix(1,0,0,1,-1315,1370.6052812352239) translate(-4.342447916666664 67.21657986111111)"/><path d="M-1100 1349.9a6 6 0 0 1 6-6h118a6 6 0 0 1 6 6v103.4a6 6 0 0 1-6 6.02h-118a6 6 0 0 1-6-6z" stroke="#000" stroke-width="2" fill="#e3fae3"/><use xlink:href="#p" transform="matrix(1,0,0,1,-1088,1355.895645818557) translate(2.7721354166666714 24.40277777777778)"/><use xlink:href="#q" transform="matrix(1,0,0,1,-1088,1355.895645818557) translate(28.439453125 56.66840277777778)"/><use xlink:href="#r" transform="matrix(1,0,0,1,-1088,1355.895645818557) translate(4.909722222222221 88.93402777777777)"/><path d="M-1198.5 1401.6h81.12" stroke="#3a414a" fill="none"/><path d="M-1198.5 1402.08h-.5v-.95h.5z" stroke="#3a414a" stroke-width=".05" fill="#3a414a"/><path d="M-1102.62 1401.6l-14.26 4.64v-9.27z" stroke="#3a414a" fill="#3a414a"/><path d="M-900 1306a6 6 0 0 1 6-6h228a6 6 0 0 1 6 6v48a6 6 0 0 1-6 6h-228a6 6 0 0 1-6-6z" fill="none"/><use xlink:href="#s" transform="matrix(1,0,0,1,-900,1300) translate(24.74175347222223 38.083767361111114)"/><path d="M-968.5 1401.6h51.12" stroke="#3a414a" fill="none"/><path d="M-968.5 1402.08h-.5v-.95h.5z" stroke="#3a414a" stroke-width=".05" fill="#3a414a"/><path d="M-902.62 1401.6l-14.26 4.64v-9.27z" stroke="#3a414a" fill="#3a414a"/><path d="M-319.8 1783.57a8 8 0 0 1 9.6 0l70.4 52.8a4.5 4.5 0 0 1 0 7.2l-70.4 52.8a8 8 0 0 1-9.6 0l-70.4-52.8a4.5 4.5 0 0 1 0-7.2z" stroke="#000" stroke-width="2" fill="#fff"/><use xlink:href="#g" transform="matrix(1,0,0,1,-390,1784.965034965035) translate(41.601137152777774 62.77777777777778)"/><path d="M-315 1964.2v-48.85" stroke="#3a414a" fill="none"/><path d="M-314.52 1964.7h-.96v-.5h.96z" stroke="#3a414a" stroke-width=".05" fill="#3a414a"/><path d="M-315 1900.6l4.63 14.25h-9.26z" stroke="#3a414a" fill="#3a414a"/><path d="M-461.8 1840.94h-18.7V1839h18.7zm67.8 0h-36.2V1839h36.2z" stroke="#008a0e" stroke-width=".05" fill="#008a0e"/><path d="M-393 1839.96l.1.98h-1.13V1839h1.12z" fill="#008a0e"/><path stroke="#008a0e" stroke-width=".05" fill="#008a0e"/><path d="M-481.5 1844.6l-14.26-4.63 14.26-4.64z" fill="#008a0e"/><path d="M-480.52 1845.94l-18.4-5.98 18.4-5.97zm-12.1-5.98l10.15 3.3v-6.6z" stroke="#008a0e" stroke-width=".05" fill="#008a0e"/><use xlink:href="#k" transform="matrix(1,0,0,1,-461.8007725782421,1829.2098266317018) translate(0 17.22222222222222)"/><path d="M-1200 2062.3c0 6.63-26.86 12-60 12s-60-5.37-60-12v-96c0-6.63 26.86-12 60-12s60 5.37 60 12z" stroke="#000" stroke-width="2" fill="#fff"/><path d="M-1200 1966.3c0 6.63-26.86 12-60 12s-60-5.37-60-12" stroke="#000" stroke-width="2" fill="none"/><use xlink:href="#n" transform="matrix(1,0,0,1,-1315,1983.3006993006993) translate(3.8715277777777857 34.950954861111114)"/><use xlink:href="#o" transform="matrix(1,0,0,1,-1315,1983.3006993006993) translate(-4.342447916666664 67.21657986111111)"/><path d="M-880 1964.88a6 6 0 0 1 6-6h118a6 6 0 0 1 6 6v103.42a6 6 0 0 1-6 6h-118a6 6 0 0 1-6-6z" stroke="#000" stroke-width="2" fill="#e3fae3"/><use xlink:href="#t" transform="matrix(1,0,0,1,-868,1970.881428467366) translate(8.2734375 38.77777777777778)"/><use xlink:href="#d" transform="matrix(1,0,0,1,-868,1970.881428467366) translate(19.194661458333336 71.04340277777777)"/><path d="M-708.23 2023.27h-22.27v-1.95h22.27zm64.23-2.3h-39.78v-1.94H-644z" stroke="#e81313" stroke-width=".05" fill="#e81313"/><path d="M-643 2020l.1.97h-1.13v-1.94h1.12z" fill="#e81313"/><path stroke="#e81313" stroke-width=".05" fill="#e81313"/><path d="M-731.5 2026.93l-14.26-4.64 14.26-4.64z" fill="#e81313"/><path d="M-730.52 2028.27l-18.4-5.98 18.4-6zm-12.1-5.98l10.15 3.28V2019z" stroke="#e81313" stroke-width=".05" fill="#e81313"/><use xlink:href="#j" transform="matrix(1,0,0,1,-708.2287212116964,2010.3899739583335) translate(0 17.22222222222222)"/><path d="M-1086.5 2017.07h-96.12v-.95h96.1zm205 0h-112v-.95h112z" stroke="#3a414a" stroke-width=".05" fill="#3a414a"/><path d="M-881 2017.07h-.5v-.95h.5z" fill="#3a414a"/><path stroke="#3a414a" stroke-width=".05" fill="#3a414a"/><path d="M-1183.12 2021.23l-14.26-4.64 14.26-4.64z" fill="#3a414a"/><path d="M-1182.64 2021.88l-16.28-5.3 16.28-5.28zm-13.2-5.3l12.25 4v-7.97z" stroke="#3a414a" stroke-width=".05" fill="#3a414a"/><use xlink:href="#u" transform="matrix(1,0,0,1,-1086.510391666667,2005.8358555506995) translate(0 17.22222222222222)"/><path d="M-1380 1106a6 6 0 0 1 6-6h215.28a6 6 0 0 1 6 6v50.9a6 6 0 0 1-6 6H-1374a6 6 0 0 1-6-6z" fill="none"/><use xlink:href="#v" transform="matrix(1,0,0,1,-1379.9999999999998,1100) translate(32.06640625 39.583767361111114)"/><use xlink:href="#w" transform="matrix(1,0,0,1,-1379.9999999999998,1100) translate(135.63628472222223 39.583767361111114)"/><path d="M-1760 1606a6 6 0 0 1 6-6h148a6 6 0 0 1 6 6v108a6 6 0 0 1-6 6h-148a6 6 0 0 1-6-6z" stroke="#000" stroke-width="2" fill="#fff"/><use xlink:href="#x" transform="matrix(1,0,0,1,-1748,1612) translate(17.533420138888893 39.52777777777778)"/><use xlink:href="#y" transform="matrix(1,0,0,1,-1748,1612) translate(25.687717013888893 71.79340277777777)"/><path d="M-1510.58 1660.47h-87.92v-.94h87.92zm113.2 0h-72.04v-.94h72.04z" stroke="#3a414a" stroke-width=".05" fill="#3a414a"/><path d="M-1598.5 1660.47h-.5v-.94h.5z" fill="#3a414a"/><path stroke="#3a414a" stroke-width=".05" fill="#3a414a"/><path d="M-1382.62 1660l-14.26 4.63v-9.27z" fill="#3a414a"/><path d="M-1381.08 1660l-16.28 5.3v-10.6zm-15.33 3.98l12.25-3.98-12.26-3.98z" stroke="#3a414a" stroke-width=".05" fill="#3a414a"/><g><use xlink:href="#z" transform="matrix(1,0,0,1,-1510.5772569444441,1649.2447916666667) translate(0 17.22222222222222)"/></g><path d="M-840 1246a6 6 0 0 1 6-6h228a6 6 0 0 1 6 6v48a6 6 0 0 1-6 6h-228a6 6 0 0 1-6-6z" fill="none"/><g><use xlink:href="#A" transform="matrix(1,0,0,1,-840,1240) translate(22.077907986111114 38.083767361111114)"/></g><path d="M-800 1186a6 6 0 0 1 6-6h228a6 6 0 0 1 6 6v48a6 6 0 0 1-6 6h-228a6 6 0 0 1-6-6z" fill="none"/><g><use xlink:href="#B" transform="matrix(1,0,0,1,-800,1180) translate(23.255208333333343 38.083767361111114)"/></g><path d="M-670 1494.6a6 6 0 0 1 6-6h228a6 6 0 0 1 6 6v48a6 6 0 0 1-6 6h-228a6 6 0 0 1-6-6z" fill="none"/><g><use xlink:href="#C" transform="matrix(1,0,0,1,-670,1488.6013986013986) translate(61.06445312500001 38.083767361111114)"/><use xlink:href="#D" transform="matrix(1,0,0,1,-670,1488.6013986013986) translate(126.11436631944443 38.083767361111114)"/></g><defs><path d="M458 0L52-1490h194c108 439 233 855 324 1313 92-459 221-873 331-1313h216c110 438 234 854 330 1307 92-455 216-869 323-1307h196L1558 0h-221l-256-944c-26-95-50-200-73-331-22 122-44 223-73 331L680 0H458" id="E"/><path d="M613 24c-304 0-509-231-509-576 0-350 205-580 509-580 305 0 511 230 511 580 0 345-206 576-511 576zm0-161c226 0 329-195 329-415 0-222-103-419-329-419-223 0-326 196-326 419 0 220 103 415 326 415" id="F"/><path d="M158 0v-1118h174v172h12c41-113 157-188 290-188 26 0 70 2 91 3v181c-11-2-60-10-108-10-161 0-279 109-279 260V0H158" id="G"/><path d="M158 0v-1490h180v865h22l478-493h223L593-638 1096 0H865L456-523 338-412V0H158" id="H"/><path d="M628 24c-324 0-524-230-524-574 0-343 198-582 503-582 237 0 487 146 487 559v75H286c9 234 145 362 343 362 132 0 231-58 273-172l174 48C1024-91 857 24 628 24zM287-650h624c-17-190-120-322-304-322-192 0-309 151-320 322" id="I"/><g id="a"><use transform="matrix(0.010850694444444444,0,0,0.010850694444444444,0,0)" xlink:href="#E"/><use transform="matrix(0.010850694444444444,0,0,0.010850694444444444,20.768229166666668,0)" xlink:href="#F"/><use transform="matrix(0.010850694444444444,0,0,0.010850694444444444,34.09288194444444,0)" xlink:href="#G"/><use transform="matrix(0.010850694444444444,0,0,0.010850694444444444,42.80598958333333,0)" xlink:href="#H"/><use transform="matrix(0.010850694444444444,0,0,0.010850694444444444,54.50303819444444,0)" xlink:href="#I"/><use transform="matrix(0.010850694444444444,0,0,0.010850694444444444,67.45876736111111,0)" xlink:href="#G"/></g><path d="M180 0v-1490h528c311 0 458 177 458 395 0 191-114 278-244 313v14c139 9 302 137 302 371 0 225-148 397-499 397H180zm190-168h350c232 0 321-102 321-231 0-149-120-277-311-277H370v508zm0-668h328c160 0 286-101 286-255 0-129-87-231-280-231H370v486" id="J"/><path d="M538 24C308 24 148-78 108-271l171-41c32 123 123 178 257 178 156 0 256-77 256-169 0-77-54-128-164-154l-186-44c-203-48-300-148-300-305 0-192 176-326 414-326 230 0 351 112 402 269l-163 42c-31-80-94-158-238-158-133 0-233 69-233 162 0 83 57 129 188 160l169 40c203 48 298 149 298 302 0 196-179 339-441 339" id="K"/><g id="b"><use transform="matrix(0.010850694444444444,0,0,0.010850694444444444,0,0)" xlink:href="#J"/><use transform="matrix(0.010850694444444444,0,0,0.010850694444444444,14.539930555555555,0)" xlink:href="#F"/><use transform="matrix(0.010850694444444444,0,0,0.010850694444444444,27.864583333333332,0)" xlink:href="#K"/><use transform="matrix(0.010850694444444444,0,0,0.010850694444444444,39.59418402777778,0)" xlink:href="#K"/></g><path d="M598-1118v154H368v674c0 100 37 144 132 144 23 0 62-6 92-12L629-6c-37 13-88 20-134 20-193 0-307-107-307-290v-688H20v-154h168v-266h180v266h230" id="L"/><g id="c"><use transform="matrix(0.010850694444444444,0,0,0.010850694444444444,0,0)" xlink:href="#E"/><use transform="matrix(0.010850694444444444,0,0,0.010850694444444444,20.768229166666668,0)" xlink:href="#F"/><use transform="matrix(0.010850694444444444,0,0,0.010850694444444444,34.09288194444444,0)" xlink:href="#G"/><use transform="matrix(0.010850694444444444,0,0,0.010850694444444444,42.80598958333333,0)" xlink:href="#H"/><use transform="matrix(0.010850694444444444,0,0,0.010850694444444444,55.002170138888886,0)" xlink:href="#L"/><use transform="matrix(0.010850694444444444,0,0,0.010850694444444444,62.272135416666664,0)" xlink:href="#G"/><use transform="matrix(0.010850694444444444,0,0,0.010850694444444444,70.26909722222221,0)" xlink:href="#I"/><use transform="matrix(0.010850694444444444,0,0,0.010850694444444444,83.22482638888889,0)" xlink:href="#I"/></g><path d="M180 0v-1490h270l367 940c28 72 75 218 110 339 35-117 81-264 110-339l362-940h271V0h-187c2-448-5-837 7-1287-157 497-311 829-483 1287H842C666-458 514-784 354-1284c12 438 5 843 7 1284H180" id="M"/><path d="M611 442c-248 0-391-105-460-228l146-94c47 65 117 165 314 165 178 0 307-82 307-266v-224h-17C863-141 792-18 576-18c-268 0-472-195-472-546 0-346 197-568 476-568 216 0 288 133 326 193h17v-179h175V29c0 289-215 413-487 413zm-5-620c203 0 314-146 314-390 0-237-108-403-314-403-213 0-319 180-319 403 0 230 109 390 319 390" id="N"/><g id="d"><use transform="matrix(0.010850694444444444,0,0,0.010850694444444444,0,0)" xlink:href="#M"/><use transform="matrix(0.010850694444444444,0,0,0.010850694444444444,20.07378472222222,0)" xlink:href="#I"/><use transform="matrix(0.010850694444444444,0,0,0.010850694444444444,33.029513888888886,0)" xlink:href="#G"/><use transform="matrix(0.010850694444444444,0,0,0.010850694444444444,41.026475694444436,0)" xlink:href="#N"/><use transform="matrix(0.010850694444444444,0,0,0.010850694444444444,54.65494791666666,0)" xlink:href="#I"/></g><path fill="#333" d="M440-1490V0H135v-1490h305" id="O"/><path fill="#333" d="M233-870l-31-620h289l-30 620H233" id="P"/><path fill="#333" d="M128 0v-1118h278l12 217c60-163 185-234 319-234 143 0 236 81 288 251 63-172 205-251 359-251 205 0 357 138 357 381V0h-301v-697c0-126-76-187-177-187-114 0-184 79-184 196V0H789v-705c0-109-72-179-174-179-106 0-187 74-187 208V0H128" id="Q"/><g id="e"><use transform="matrix(0.008680555555555556,0,0,0.008680555555555556,0,0)" xlink:href="#O"/><use transform="matrix(0.008680555555555556,0,0,0.008680555555555556,4.991319444444445,0)" xlink:href="#P"/><use transform="matrix(0.008680555555555556,0,0,0.008680555555555556,11.015625,0)" xlink:href="#Q"/></g><path fill="#333" d="M659 0H135v-1490h529c448 0 721 280 721 744 0 466-273 746-726 746zM440-263h204c287 0 437-148 437-483 0-333-150-481-435-481H440v964" id="R"/><path fill="#333" d="M628 22C291 22 81-210 81-554c0-346 210-578 547-578 336 0 547 232 547 578 0 344-211 576-547 576zm0-236c160 0 242-146 242-341 0-197-82-341-242-341S387-753 387-555c0 195 81 341 241 341" id="S"/><path fill="#333" d="M428-647V0H128v-1118h283l4 231c63-156 176-245 348-245 232 0 384 159 384 421V0H847v-659c0-139-76-222-202-222-128 0-217 86-217 234" id="T"/><path fill="#333" d="M633 22C291 22 81-200 81-553c0-345 210-579 537-579 292 0 525 185 525 567v84H378c7 183 109 277 260 277 105 0 184-46 216-132l272 51C1071-99 893 22 633 22zM380-669h474c-15-146-94-237-233-237-143 0-229 99-241 237" id="U"/><g id="f"><use transform="matrix(0.008680555555555556,0,0,0.008680555555555556,0,0)" xlink:href="#R"/><use transform="matrix(0.008680555555555556,0,0,0.008680555555555556,12.838541666666668,0)" xlink:href="#S"/><use transform="matrix(0.008680555555555556,0,0,0.008680555555555556,23.741319444444446,0)" xlink:href="#T"/><use transform="matrix(0.008680555555555556,0,0,0.008680555555555556,34.80902777777778,0)" xlink:href="#U"/></g><path d="M645 0H180v-1490h484c435 0 692 280 692 742 0 466-257 748-711 748zM370-168h263c363 0 539-218 539-580 0-358-176-574-521-574H370v1154" id="V"/><path d="M338-670V0H158v-1118h173l1 207c72-158 192-221 342-221 226 0 378 139 378 422V0H872v-695c0-172-96-275-252-275-161 0-282 109-282 300" id="W"/><path d="M383-449c-3-277 82-343 222-425 88-53 156-134 156-250 0-139-108-227-243-227-118 0-235 70-246 236H82c10-251 200-395 436-395 259 0 427 165 427 393 0 161-74 273-203 352-132 80-180 132-178 316H383zm93 462c-75 0-135-60-135-134 0-75 60-135 135-135 74 0 134 60 134 135 0 74-60 134-134 134" id="X"/><g id="g"><use transform="matrix(0.010850694444444444,0,0,0.010850694444444444,0,0)" xlink:href="#V"/><use transform="matrix(0.010850694444444444,0,0,0.010850694444444444,16.03732638888889,0)" xlink:href="#F"/><use transform="matrix(0.010850694444444444,0,0,0.010850694444444444,29.361979166666664,0)" xlink:href="#W"/><use transform="matrix(0.010850694444444444,0,0,0.010850694444444444,42.49131944444444,0)" xlink:href="#I"/><use transform="matrix(0.010850694444444444,0,0,0.010850694444444444,55.44704861111111,0)" xlink:href="#X"/></g><path fill="#333" d="M49 0l509-1490h400L1480 0h-339l-115-346H497L386 0H49zm524-585h374c-75-213-124-402-192-666-66 268-110 453-182 666" id="Y"/><path fill="#333" d="M513 14c-232 0-385-159-385-421v-711h300v659c0 139 76 222 202 222 127 0 217-86 217-234v-647h301V0H864l-4-232C797-74 683 14 513 14" id="Z"/><path fill="#333" d="M537 19C279 19 81-185 81-557c0-382 206-575 454-575 190 0 278 113 318 202h10v-560h300V0H868v-179h-15C812-89 719 19 537 19zm92-241c153 0 240-134 240-336 0-203-86-334-240-334-158 0-240 138-240 334 0 197 84 336 240 336" id="aa"/><path fill="#333" d="M128 0v-1118h300V0H128zm150-1264c-91 0-165-68-165-154 0-85 74-154 165-154 90 0 165 69 165 154 0 86-75 154-165 154" id="ab"/><path fill="#333" d="M683-1118v229H474v562c0 71 29 104 102 104 23 0 73-7 95-13l43 225C647 9 580 16 520 16 296 16 174-96 174-301v-588H20v-229h154v-266h300v266h209" id="ac"/><g id="h"><use transform="matrix(0.008680555555555556,0,0,0.008680555555555556,0,0)" xlink:href="#Y"/><use transform="matrix(0.008680555555555556,0,0,0.008680555555555556,13.272569444444445,0)" xlink:href="#Z"/><use transform="matrix(0.008680555555555556,0,0,0.008680555555555556,24.34027777777778,0)" xlink:href="#aa"/><use transform="matrix(0.008680555555555556,0,0,0.008680555555555556,35.546875,0)" xlink:href="#ab"/><use transform="matrix(0.008680555555555556,0,0,0.008680555555555556,40.364583333333336,0)" xlink:href="#ac"/></g><path fill="#333" d="M449 0L49-1490h333c89 395 194 758 253 1185 65-426 176-790 269-1185h317c93 394 201 758 268 1181 60-425 164-788 253-1181h334L1675 0h-348c-90-376-204-711-266-1118C1004-714 886-373 798 0H449" id="ad"/><path fill="#333" d="M128 0v-1118h290v195h12c54-169 184-238 367-200v268c-27-8-86-15-130-15-138 0-239 95-239 234V0H128" id="ae"/><path fill="#333" d="M128 0v-1490h300v802h17l366-430h347L740-633 1179 0H826L514-456l-86 97V0H128" id="af"/><g id="i"><use transform="matrix(0.008680555555555556,0,0,0.008680555555555556,0,0)" xlink:href="#ad"/><use transform="matrix(0.008680555555555556,0,0,0.008680555555555556,17.56076388888889,0)" xlink:href="#S"/><use transform="matrix(0.008680555555555556,0,0,0.008680555555555556,28.463541666666668,0)" xlink:href="#ae"/><use transform="matrix(0.008680555555555556,0,0,0.008680555555555556,35.98090277777778,0)" xlink:href="#af"/><use transform="matrix(0.008680555555555556,0,0,0.008680555555555556,45.89409722222222,0)" xlink:href="#U"/><use transform="matrix(0.008680555555555556,0,0,0.008680555555555556,56.484375,0)" xlink:href="#ae"/></g><path fill="#333" d="M135 0v-1490h340l471 754c59 97 122 210 187 365-32-387-14-721-19-1119h312V0h-341C855-382 627-689 427-1113c32 420 16 695 20 1113H135" id="ag"/><g id="j"><use transform="matrix(0.008680555555555556,0,0,0.008680555555555556,0,0)" xlink:href="#ag"/><use transform="matrix(0.008680555555555556,0,0,0.008680555555555556,13.550347222222223,0)" xlink:href="#S"/></g><path fill="#333" d="M601 0v-560L49-1490h357l252 464c38 68 67 130 97 208 96-243 225-446 337-672h356L905-560V0H601" id="ah"/><path fill="#333" d="M572 22C302 22 117-98 78-306l279-48c29 105 101 156 224 156 114 0 185-48 185-115 0-118-228-130-337-155-215-49-322-150-322-317 0-215 187-347 470-347 265 0 424 116 466 298l-266 47c-24-76-87-130-196-130-98 0-174 46-174 113 0 56 38 95 144 117l201 40c216 44 320 143 320 302 0 220-207 367-500 367" id="ai"/><g id="k"><use transform="matrix(0.008680555555555556,0,0,0.008680555555555556,0,0)" xlink:href="#ah"/><use transform="matrix(0.008680555555555556,0,0,0.008680555555555556,11.050347222222223,0)" xlink:href="#U"/><use transform="matrix(0.008680555555555556,0,0,0.008680555555555556,21.640625,0)" xlink:href="#ai"/></g><path d="M783 20c-382 0-661-292-661-764 0-473 279-766 661-766 302 0 548 182 601 489h-190c-42-204-217-313-411-313-268 0-476 208-476 590 0 381 209 588 476 588 195 0 369-110 411-313h190c-52 303-296 489-601 489" id="aj"/><path d="M678-1118v154H420V0H240v-964H20v-154h220v-149c0-194 155-293 318-293 85 0 141 18 168 30l-50 154c-19-6-47-17-97-17-111 0-159 58-159 166v109h258" id="ak"/><path d="M338-1490V0H158v-1490h180" id="al"/><path d="M158 0v-1118h180V0H158zm91-1301c-68 0-125-53-125-119s57-119 125-119c69 0 126 53 126 119s-57 119-126 119" id="am"/><path d="M613 24c-304 0-509-231-509-576 0-350 205-580 509-580 216 0 392 114 453 309l-173 49c-33-115-133-197-280-197-223 0-326 196-326 419 0 220 103 415 326 415 150 0 252-85 285-206l172 49C1010-95 832 24 613 24" id="an"/><g id="l"><use transform="matrix(0.010850694444444444,0,0,0.010850694444444444,0,0)" xlink:href="#aj"/><use transform="matrix(0.010850694444444444,0,0,0.010850694444444444,16.23263888888889,0)" xlink:href="#F"/><use transform="matrix(0.010850694444444444,0,0,0.010850694444444444,29.557291666666664,0)" xlink:href="#W"/><use transform="matrix(0.010850694444444444,0,0,0.010850694444444444,42.68663194444444,0)" xlink:href="#ak"/><use transform="matrix(0.010850694444444444,0,0,0.010850694444444444,50.91145833333333,0)" xlink:href="#al"/><use transform="matrix(0.010850694444444444,0,0,0.010850694444444444,56.29340277777778,0)" xlink:href="#am"/><use transform="matrix(0.010850694444444444,0,0,0.010850694444444444,61.67534722222221,0)" xlink:href="#an"/><use transform="matrix(0.010850694444444444,0,0,0.010850694444444444,74.37065972222221,0)" xlink:href="#L"/><use transform="matrix(0.010850694444444444,0,0,0.010850694444444444,81.64062499999999,0)" xlink:href="#X"/></g><path d="M180 0v-1490h510c348 0 508 194 508 460 0 198-88 351-276 417L1256 0h-220L726-579c-117 2-238 0-356 1V0H180zm190-747h312c235 0 327-108 327-283 0-177-92-293-329-293H370v576" id="ao"/><path d="M481 0L54-1118h197c107 314 236 620 325 951 87-331 217-637 324-951h197L670 0H481" id="ap"/><g id="m"><use transform="matrix(0.010850694444444444,0,0,0.010850694444444444,0,0)" xlink:href="#ao"/><use transform="matrix(0.010850694444444444,0,0,0.010850694444444444,13.975694444444445,0)" xlink:href="#I"/><use transform="matrix(0.010850694444444444,0,0,0.010850694444444444,26.931423611111104,0)" xlink:href="#K"/><use transform="matrix(0.010850694444444444,0,0,0.010850694444444444,38.66102430555555,0)" xlink:href="#F"/><use transform="matrix(0.010850694444444444,0,0,0.010850694444444444,51.98567708333333,0)" xlink:href="#al"/><use transform="matrix(0.010850694444444444,0,0,0.010850694444444444,57.47612847222221,0)" xlink:href="#ap"/><use transform="matrix(0.010850694444444444,0,0,0.010850694444444444,69.53124999999999,0)" xlink:href="#I"/><use transform="matrix(0.010850694444444444,0,0,0.010850694444444444,82.48697916666666,0)" xlink:href="#G"/></g><path d="M763 24c-353 0-583-224-583-531v-983h190v968c0 214 149 370 393 370 243 0 391-156 391-370v-968h190v983c0 307-230 531-581 531" id="aq"/><path d="M158 418v-1536h174v179h20c37-59 106-193 324-193 279 0 474 222 474 576 0 356-194 580-473 580-213 0-288-135-325-197h-14v591H158zm492-555c209 0 317-186 317-421 0-232-105-413-317-413-206 0-314 166-314 413 0 249 111 421 314 421" id="ar"/><path d="M471 26C259 26 90-98 90-318c0-256 228-303 435-329 202-27 287-16 287-108 0-139-79-219-234-219-161 0-248 86-283 164l-173-57c86-203 278-265 451-265 150 0 419 46 419 395V0H815v-152h-12C765-73 660 26 471 26zm31-159c199 0 310-134 310-271v-155c-30 35-226 55-295 64-131 17-246 59-246 186 0 116 97 176 231 176" id="as"/><path d="M158 0v-1118h175l1 205c55-151 181-225 313-225 147 0 245 90 285 228 53-141 190-228 352-228 194 0 352 125 352 384V0h-181v-749c0-161-105-225-225-225-151 0-243 103-243 244V0H807v-767c0-124-93-207-219-207-131 0-250 92-250 270V0H158" id="at"/><g id="n"><use transform="matrix(0.010850694444444444,0,0,0.010850694444444444,0,0)" xlink:href="#aq"/><use transform="matrix(0.010850694444444444,0,0,0.010850694444444444,16.536458333333332,0)" xlink:href="#ar"/><use transform="matrix(0.010850694444444444,0,0,0.010850694444444444,30.143229166666664,0)" xlink:href="#K"/><use transform="matrix(0.010850694444444444,0,0,0.010850694444444444,41.87282986111111,0)" xlink:href="#L"/><use transform="matrix(0.010850694444444444,0,0,0.010850694444444444,49.142795138888886,0)" xlink:href="#G"/><use transform="matrix(0.010850694444444444,0,0,0.010850694444444444,57.139756944444436,0)" xlink:href="#I"/><use transform="matrix(0.010850694444444444,0,0,0.010850694444444444,70.31249999999999,0)" xlink:href="#as"/><use transform="matrix(0.010850694444444444,0,0,0.010850694444444444,82.7907986111111,0)" xlink:href="#at"/></g><g id="o"><use transform="matrix(0.010850694444444444,0,0,0.010850694444444444,0,0)" xlink:href="#E"/><use transform="matrix(0.010850694444444444,0,0,0.010850694444444444,20.768229166666668,0)" xlink:href="#F"/><use transform="matrix(0.010850694444444444,0,0,0.010850694444444444,34.09288194444444,0)" xlink:href="#G"/><use transform="matrix(0.010850694444444444,0,0,0.010850694444444444,42.80598958333333,0)" xlink:href="#H"/><use transform="matrix(0.010850694444444444,0,0,0.010850694444444444,55.002170138888886,0)" xlink:href="#K"/><use transform="matrix(0.010850694444444444,0,0,0.010850694444444444,66.73177083333333,0)" xlink:href="#ar"/><use transform="matrix(0.010850694444444444,0,0,0.010850694444444444,80.55555555555554,0)" xlink:href="#as"/><use transform="matrix(0.010850694444444444,0,0,0.010850694444444444,93.03385416666666,0)" xlink:href="#an"/><use transform="matrix(0.010850694444444444,0,0,0.010850694444444444,105.72916666666666,0)" xlink:href="#I"/></g><path d="M338-670V0H158v-1490h180v566c73-149 190-208 336-208 226 0 379 139 379 422V0H872v-695c0-172-96-275-252-275-161 0-282 109-282 300" id="au"/><path d="M537 14c-226 0-379-139-379-422v-710h180v695c0 172 97 275 253 275 160 0 281-109 281-300v-670h181V0H879v-209C806-46 684 14 537 14" id="av"/><g id="p"><use transform="matrix(0.010850694444444444,0,0,0.010850694444444444,0,0)" xlink:href="#aj"/><use transform="matrix(0.010850694444444444,0,0,0.010850694444444444,16.23263888888889,0)" xlink:href="#au"/><use transform="matrix(0.010850694444444444,0,0,0.010850694444444444,29.37282986111111,0)" xlink:href="#I"/><use transform="matrix(0.010850694444444444,0,0,0.010850694444444444,42.32855902777778,0)" xlink:href="#an"/><use transform="matrix(0.010850694444444444,0,0,0.010850694444444444,55.02387152777778,0)" xlink:href="#H"/><use transform="matrix(0.010850694444444444,0,0,0.010850694444444444,66.72092013888889,0)" xlink:href="#F"/><use transform="matrix(0.010850694444444444,0,0,0.010850694444444444,80.04557291666666,0)" xlink:href="#av"/><use transform="matrix(0.010850694444444444,0,0,0.010850694444444444,93.18576388888889,0)" xlink:href="#L"/></g><path d="M98-1322v-168h1126v168H757V0H567v-1322H98" id="aw"/><g id="q"><use transform="matrix(0.010850694444444444,0,0,0.010850694444444444,0,0)" xlink:href="#aw"/><use transform="matrix(0.010850694444444444,0,0,0.010850694444444444,12.71701388888889,0)" xlink:href="#as"/><use transform="matrix(0.010850694444444444,0,0,0.010850694444444444,25.1953125,0)" xlink:href="#K"/><use transform="matrix(0.010850694444444444,0,0,0.010850694444444444,36.92491319444444,0)" xlink:href="#H"/></g><g id="r"><use transform="matrix(0.010850694444444444,0,0,0.010850694444444444,0,0)" xlink:href="#E"/><use transform="matrix(0.010850694444444444,0,0,0.010850694444444444,20.768229166666668,0)" xlink:href="#F"/><use transform="matrix(0.010850694444444444,0,0,0.010850694444444444,34.09288194444444,0)" xlink:href="#G"/><use transform="matrix(0.010850694444444444,0,0,0.010850694444444444,42.80598958333333,0)" xlink:href="#H"/><use transform="matrix(0.010850694444444444,0,0,0.010850694444444444,55.002170138888886,0)" xlink:href="#L"/><use transform="matrix(0.010850694444444444,0,0,0.010850694444444444,62.272135416666664,0)" xlink:href="#G"/><use transform="matrix(0.010850694444444444,0,0,0.010850694444444444,70.26909722222221,0)" xlink:href="#I"/><use transform="matrix(0.010850694444444444,0,0,0.010850694444444444,83.22482638888889,0)" xlink:href="#I"/></g><path d="M409 0L70-1118h191c89 329 165 560 243 925 75-353 154-601 240-925h192c85 325 161 564 235 922 77-354 157-598 244-922h191L1267 0h-179c-86-307-176-590-250-913C763-588 675-308 588 0H409" id="ax"/><path d="M692-1560L212 224H46l480-1784h166" id="ay"/><path d="M798-719v166H144v-166h654" id="az"/><path d="M653-1490V0H466v-1314h-10L96-1047v-204l324-239h233" id="aA"/><path d="M154 0v-137l495-537c165-179 249-281 249-418 0-156-121-253-280-253-170 0-278 110-278 278H158c0-264 200-443 465-443 266 0 455 183 455 416 0 161-73 288-336 568L416-179v12h687V0H154" id="aB"/><path d="M635 20c-292 0-500-160-510-396h192c11 142 145 229 315 229 187 0 323-105 323-260 0-161-125-274-346-274H488v-165h121c174 0 294-100 294-254 0-148-104-245-266-245-152 0-291 85-297 230H157c8-234 222-395 484-395 278 0 448 188 448 400 0 168-95 291-247 336v12c190 31 301 169 301 357 0 244-216 425-508 425" id="aC"/><g id="s"><use transform="matrix(0.010850694444444444,0,0,0.010850694444444444,0,0)" xlink:href="#ax"/><use transform="matrix(0.010850694444444444,0,0,0.010850694444444444,17.784288194444446,0)" xlink:href="#F"/><use transform="matrix(0.010850694444444444,0,0,0.010850694444444444,31.10894097222222,0)" xlink:href="#G"/><use transform="matrix(0.010850694444444444,0,0,0.010850694444444444,39.82204861111111,0)" xlink:href="#H"/><use transform="matrix(0.010850694444444444,0,0,0.010850694444444444,52.018229166666664,0)" xlink:href="#L"/><use transform="matrix(0.010850694444444444,0,0,0.010850694444444444,59.28819444444444,0)" xlink:href="#G"/><use transform="matrix(0.010850694444444444,0,0,0.010850694444444444,67.28515625,0)" xlink:href="#I"/><use transform="matrix(0.010850694444444444,0,0,0.010850694444444444,80.24088541666667,0)" xlink:href="#I"/><use transform="matrix(0.010850694444444444,0,0,0.010850694444444444,93.19661458333334,0)" xlink:href="#ay"/><use transform="matrix(0.010850694444444444,0,0,0.010850694444444444,101.20442708333334,0)" xlink:href="#L"/><use transform="matrix(0.010850694444444444,0,0,0.010850694444444444,108.58289930555556,0)" xlink:href="#as"/><use transform="matrix(0.010850694444444444,0,0,0.010850694444444444,121.06119791666666,0)" xlink:href="#K"/><use transform="matrix(0.010850694444444444,0,0,0.010850694444444444,132.79079861111111,0)" xlink:href="#H"/><use transform="matrix(0.010850694444444444,0,0,0.010850694444444444,143.97786458333331,0)" xlink:href="#az"/><use transform="matrix(0.010850694444444444,0,0,0.010850694444444444,154.19921874999997,0)" xlink:href="#aA"/><use transform="matrix(0.010850694444444444,0,0,0.010850694444444444,163.2378472222222,0)" xlink:href="#aB"/><use transform="matrix(0.010850694444444444,0,0,0.010850694444444444,176.79036458333331,0)" xlink:href="#aC"/></g><path d="M657 26c-323 0-524-166-541-416h195c15 169 171 246 346 246 202 0 356-106 356-265 5-203-294-238-475-293-239-73-380-191-380-389 0-252 224-419 512-419 294 0 499 171 508 396H992c-17-145-151-228-328-228-193 0-321 102-321 242 0 156 175 211 284 241l149 41c160 44 422 134 422 412 0 244-197 432-541 432" id="aD"/><path d="M126 0v-134l627-806v-11H146v-167h839v143L376-178v11h629V0H126" id="aE"/><g id="t"><use transform="matrix(0.010850694444444444,0,0,0.010850694444444444,0,0)" xlink:href="#aD"/><use transform="matrix(0.010850694444444444,0,0,0.010850694444444444,14.2578125,0)" xlink:href="#I"/><use transform="matrix(0.010850694444444444,0,0,0.010850694444444444,27.213541666666664,0)" xlink:href="#G"/><use transform="matrix(0.010850694444444444,0,0,0.010850694444444444,35.92664930555555,0)" xlink:href="#am"/><use transform="matrix(0.010850694444444444,0,0,0.010850694444444444,41.30859374999999,0)" xlink:href="#as"/><use transform="matrix(0.010850694444444444,0,0,0.010850694444444444,53.7868923611111,0)" xlink:href="#al"/><use transform="matrix(0.010850694444444444,0,0,0.010850694444444444,59.16883680555554,0)" xlink:href="#am"/><use transform="matrix(0.010850694444444444,0,0,0.010850694444444444,64.55078124999999,0)" xlink:href="#aE"/><use transform="matrix(0.010850694444444444,0,0,0.010850694444444444,76.49739583333333,0)" xlink:href="#I"/></g><path fill="#333" d="M786 20C389 20 94-260 94-744c0-487 299-766 692-766 339 0 597 194 641 529h-309c-28-162-156-258-326-258-233 0-388 179-388 495 0 323 157 493 387 493 170 0 298-97 328-259h309c-34 277-266 530-642 530" id="aF"/><path fill="#333" d="M754 19C571 19 479-89 437-179h-14V0H128v-1490h300v560h9c41-89 129-202 319-202 248 0 453 193 453 575 0 372-197 576-455 576zm-92-241c156 0 240-139 240-336 0-196-83-334-240-334-154 0-241 131-241 334 0 202 88 336 241 336" id="aG"/><g id="u"><use transform="matrix(0.008680555555555556,0,0,0.008680555555555556,0,0)" xlink:href="#aF"/><use transform="matrix(0.008680555555555556,0,0,0.008680555555555556,13.151041666666668,0)" xlink:href="#S"/><use transform="matrix(0.008680555555555556,0,0,0.008680555555555556,24.053819444444446,0)" xlink:href="#T"/><use transform="matrix(0.008680555555555556,0,0,0.008680555555555556,35.12152777777778,0)" xlink:href="#ac"/><use transform="matrix(0.008680555555555556,0,0,0.008680555555555556,41.63194444444444,0)" xlink:href="#ae"/><use transform="matrix(0.008680555555555556,0,0,0.008680555555555556,49.001736111111114,0)" xlink:href="#ab"/><use transform="matrix(0.008680555555555556,0,0,0.008680555555555556,53.81944444444445,0)" xlink:href="#aG"/><use transform="matrix(0.008680555555555556,0,0,0.008680555555555556,65.02604166666667,0)" xlink:href="#Z"/><use transform="matrix(0.008680555555555556,0,0,0.008680555555555556,76.09375,0)" xlink:href="#ac"/><use transform="matrix(0.008680555555555556,0,0,0.008680555555555556,82.43055555555556,0)" xlink:href="#U"/></g><g id="v"><use transform="matrix(0.010850694444444444,0,0,0.010850694444444444,0,0)" xlink:href="#W"/><use transform="matrix(0.010850694444444444,0,0,0.010850694444444444,13.129340277777777,0)" xlink:href="#am"/><use transform="matrix(0.010850694444444444,0,0,0.010850694444444444,18.51128472222222,0)" xlink:href="#N"/><use transform="matrix(0.010850694444444444,0,0,0.010850694444444444,32.13975694444444,0)" xlink:href="#au"/><use transform="matrix(0.010850694444444444,0,0,0.010850694444444444,45.279947916666664,0)" xlink:href="#L"/><use transform="matrix(0.010850694444444444,0,0,0.010850694444444444,52.33289930555556,0)" xlink:href="#K"/><use transform="matrix(0.010850694444444444,0,0,0.010850694444444444,64.0625,0)" xlink:href="#au"/><use transform="matrix(0.010850694444444444,0,0,0.010850694444444444,77.20269097222223,0)" xlink:href="#am"/><use transform="matrix(0.010850694444444444,0,0,0.010850694444444444,82.58463541666667,0)" xlink:href="#ak"/><use transform="matrix(0.010850694444444444,0,0,0.010850694444444444,90.04991319444444,0)" xlink:href="#L"/></g><path d="M65 0l393-574-370-544h210c88 136 192 297 267 435 67-142 176-302 264-435h206L661-564 1053 0H844c-94-144-206-310-287-458C484-308 366-142 273 0H65" id="aH"/><g id="w"><use transform="matrix(0.010850694444444444,0,0,0.010850694444444444,0,0)" xlink:href="#ar"/><use transform="matrix(0.010850694444444444,0,0,0.010850694444444444,13.606770833333332,0)" xlink:href="#G"/><use transform="matrix(0.010850694444444444,0,0,0.010850694444444444,21.603732638888886,0)" xlink:href="#I"/><use transform="matrix(0.010850694444444444,0,0,0.010850694444444444,34.55946180555555,0)" xlink:href="#ak"/><use transform="matrix(0.010850694444444444,0,0,0.010850694444444444,42.78428819444444,0)" xlink:href="#am"/><use transform="matrix(0.010850694444444444,0,0,0.010850694444444444,48.166232638888886,0)" xlink:href="#aH"/></g><path d="M180 0v-1490h224l606 953c40 63 108 177 176 312-27-437-7-821-13-1265h190V0h-226C860-448 622-778 356-1262c27 476 11 792 15 1262H180" id="aI"/><g id="x"><use transform="matrix(0.010850694444444444,0,0,0.010850694444444444,0,0)" xlink:href="#aI"/><use transform="matrix(0.010850694444444444,0,0,0.010850694444444444,16.74262152777778,0)" xlink:href="#am"/><use transform="matrix(0.010850694444444444,0,0,0.010850694444444444,22.12456597222222,0)" xlink:href="#N"/><use transform="matrix(0.010850694444444444,0,0,0.010850694444444444,35.75303819444444,0)" xlink:href="#au"/><use transform="matrix(0.010850694444444444,0,0,0.010850694444444444,48.893229166666664,0)" xlink:href="#L"/><use transform="matrix(0.010850694444444444,0,0,0.010850694444444444,55.94618055555555,0)" xlink:href="#K"/><use transform="matrix(0.010850694444444444,0,0,0.010850694444444444,67.67578125,0)" xlink:href="#au"/><use transform="matrix(0.010850694444444444,0,0,0.010850694444444444,80.81597222222223,0)" xlink:href="#am"/><use transform="matrix(0.010850694444444444,0,0,0.010850694444444444,86.19791666666667,0)" xlink:href="#ak"/><use transform="matrix(0.010850694444444444,0,0,0.010850694444444444,93.66319444444444,0)" xlink:href="#L"/></g><path d="M180 0v-1490h510c348 0 508 209 508 474 0 266-160 477-507 477H370V0H180zm190-706h312c236 0 327-133 327-310 0-176-91-307-329-307H370v617" id="aJ"/><g id="y"><use transform="matrix(0.010850694444444444,0,0,0.010850694444444444,0,0)" xlink:href="#aJ"/><use transform="matrix(0.010850694444444444,0,0,0.010850694444444444,14.192708333333332,0)" xlink:href="#G"/><use transform="matrix(0.010850694444444444,0,0,0.010850694444444444,22.189670138888886,0)" xlink:href="#F"/><use transform="matrix(0.010850694444444444,0,0,0.010850694444444444,35.514322916666664,0)" xlink:href="#an"/><use transform="matrix(0.010850694444444444,0,0,0.010850694444444444,48.209635416666664,0)" xlink:href="#I"/><use transform="matrix(0.010850694444444444,0,0,0.010850694444444444,61.16536458333333,0)" xlink:href="#K"/><use transform="matrix(0.010850694444444444,0,0,0.010850694444444444,72.89496527777777,0)" xlink:href="#K"/></g><path fill="#333" d="M75-1237v-253h1217v253H837V0H531v-1237H75" id="aK"/><path fill="#333" d="M440 22C227 22 68-92 68-313c0-250 202-322 422-343 195-21 271-24 271-105 0-95-63-149-175-149-116 0-187 57-211 129l-275-46c57-194 237-305 487-305 240 0 474 108 474 379V0H777v-155h-10C713-51 605 22 440 22zm85-211c140 0 238-93 238-211v-121c-37 26-156 42-222 51-111 16-185 59-185 149 0 87 70 132 169 132" id="aL"/><g id="z"><use transform="matrix(0.008680555555555556,0,0,0.008680555555555556,0,0)" xlink:href="#aK"/><use transform="matrix(0.008680555555555556,0,0,0.008680555555555556,10.56423611111111,0)" xlink:href="#aL"/><use transform="matrix(0.008680555555555556,0,0,0.008680555555555556,20.885416666666664,0)" xlink:href="#ai"/><use transform="matrix(0.008680555555555556,0,0,0.008680555555555556,30.842013888888886,0)" xlink:href="#af"/></g><path d="M120-303v-155l652-1032h231v1020h202v167h-202V0H821v-303H120zm702-167v-782h-12L323-482v12h499" id="aM"/><path d="M626 20c-262 0-458-168-468-396h184c12 133 134 229 284 229 180 0 311-137 311-326 0-192-136-335-323-335-92 0-196 33-255 78l-178-22 88-738h784v167H429l-51 435h8c61-51 160-87 263-87 273 0 474 211 474 499 0 286-210 496-497 496" id="aN"/><path d="M646 20c-249 0-524-159-524-708 0-524 209-822 547-822 250 0 431 161 467 395H950c-33-129-126-227-281-227-229 0-367 208-367 566h12c80-124 212-198 367-198 255 0 467 205 467 493 0 278-198 501-502 501zm0-167c179 0 318-148 318-334 0-182-133-328-313-328-181 0-322 156-322 330 0 176 134 332 317 332" id="aO"/><g id="A"><use transform="matrix(0.010850694444444444,0,0,0.010850694444444444,0,0)" xlink:href="#ax"/><use transform="matrix(0.010850694444444444,0,0,0.010850694444444444,17.784288194444446,0)" xlink:href="#F"/><use transform="matrix(0.010850694444444444,0,0,0.010850694444444444,31.10894097222222,0)" xlink:href="#G"/><use transform="matrix(0.010850694444444444,0,0,0.010850694444444444,39.82204861111111,0)" xlink:href="#H"/><use transform="matrix(0.010850694444444444,0,0,0.010850694444444444,52.018229166666664,0)" xlink:href="#L"/><use transform="matrix(0.010850694444444444,0,0,0.010850694444444444,59.28819444444444,0)" xlink:href="#G"/><use transform="matrix(0.010850694444444444,0,0,0.010850694444444444,67.28515625,0)" xlink:href="#I"/><use transform="matrix(0.010850694444444444,0,0,0.010850694444444444,80.24088541666667,0)" xlink:href="#I"/><use transform="matrix(0.010850694444444444,0,0,0.010850694444444444,93.19661458333334,0)" xlink:href="#ay"/><use transform="matrix(0.010850694444444444,0,0,0.010850694444444444,101.20442708333334,0)" xlink:href="#L"/><use transform="matrix(0.010850694444444444,0,0,0.010850694444444444,108.58289930555556,0)" xlink:href="#as"/><use transform="matrix(0.010850694444444444,0,0,0.010850694444444444,121.06119791666666,0)" xlink:href="#K"/><use transform="matrix(0.010850694444444444,0,0,0.010850694444444444,132.79079861111111,0)" xlink:href="#H"/><use transform="matrix(0.010850694444444444,0,0,0.010850694444444444,143.97786458333331,0)" xlink:href="#az"/><use transform="matrix(0.010850694444444444,0,0,0.010850694444444444,154.19921874999997,0)" xlink:href="#aM"/><use transform="matrix(0.010850694444444444,0,0,0.010850694444444444,168.55468749999997,0)" xlink:href="#aN"/><use transform="matrix(0.010850694444444444,0,0,0.010850694444444444,182.06380208333331,0)" xlink:href="#aO"/></g><path d="M200 0l662-1311v-12H98v-167h963v177L400 0H200" id="aP"/><path d="M633 20c-303 0-511-173-511-416 0-188 124-348 291-378v-8c-145-37-237-174-237-332 0-227 192-396 457-396 261 0 456 169 456 396 0 158-94 295-235 332v8c162 30 291 190 291 378 0 243-212 416-512 416zm0-165c197 0 322-103 322-261 0-165-138-283-322-283-188 0-324 118-324 283 0 158 123 261 324 261zm0-703c157 0 272-101 272-252 0-149-110-246-272-246-165 0-273 97-273 246 0 151 112 252 273 252" id="aQ"/><path d="M603 20c-253 0-434-161-469-399h188c31 132 124 231 281 231 227 0 367-207 367-568h-12c-80 122-211 199-367 199-257 0-469-206-469-493 0-278 200-505 506-500 245 4 520 158 520 706 0 527-208 824-545 824zm16-703c181 0 324-157 324-332 0-171-135-328-318-328-180 0-317 148-317 332 0 183 131 328 311 328" id="aR"/><g id="B"><use transform="matrix(0.010850694444444444,0,0,0.010850694444444444,0,0)" xlink:href="#ax"/><use transform="matrix(0.010850694444444444,0,0,0.010850694444444444,17.784288194444446,0)" xlink:href="#F"/><use transform="matrix(0.010850694444444444,0,0,0.010850694444444444,31.10894097222222,0)" xlink:href="#G"/><use transform="matrix(0.010850694444444444,0,0,0.010850694444444444,39.82204861111111,0)" xlink:href="#H"/><use transform="matrix(0.010850694444444444,0,0,0.010850694444444444,52.018229166666664,0)" xlink:href="#L"/><use transform="matrix(0.010850694444444444,0,0,0.010850694444444444,59.28819444444444,0)" xlink:href="#G"/><use transform="matrix(0.010850694444444444,0,0,0.010850694444444444,67.28515625,0)" xlink:href="#I"/><use transform="matrix(0.010850694444444444,0,0,0.010850694444444444,80.24088541666667,0)" xlink:href="#I"/><use transform="matrix(0.010850694444444444,0,0,0.010850694444444444,93.19661458333334,0)" xlink:href="#ay"/><use transform="matrix(0.010850694444444444,0,0,0.010850694444444444,101.20442708333334,0)" xlink:href="#L"/><use transform="matrix(0.010850694444444444,0,0,0.010850694444444444,108.58289930555556,0)" xlink:href="#as"/><use transform="matrix(0.010850694444444444,0,0,0.010850694444444444,121.06119791666666,0)" xlink:href="#K"/><use transform="matrix(0.010850694444444444,0,0,0.010850694444444444,132.79079861111111,0)" xlink:href="#H"/><use transform="matrix(0.010850694444444444,0,0,0.010850694444444444,143.97786458333331,0)" xlink:href="#az"/><use transform="matrix(0.010850694444444444,0,0,0.010850694444444444,153.70008680555551,0)" xlink:href="#aP"/><use transform="matrix(0.010850694444444444,0,0,0.010850694444444444,165.96137152777774,0)" xlink:href="#aQ"/><use transform="matrix(0.010850694444444444,0,0,0.010850694444444444,179.70920138888883,0)" xlink:href="#aR"/></g><g id="C"><use transform="matrix(0.010850694444444444,0,0,0.010850694444444444,0,0)" xlink:href="#ao"/><use transform="matrix(0.010850694444444444,0,0,0.010850694444444444,14.192708333333332,0)" xlink:href="#as"/><use transform="matrix(0.010850694444444444,0,0,0.010850694444444444,26.671006944444443,0)" xlink:href="#al"/><use transform="matrix(0.010850694444444444,0,0,0.010850694444444444,32.052951388888886,0)" xlink:href="#ar"/><use transform="matrix(0.010850694444444444,0,0,0.010850694444444444,45.65972222222221,0)" xlink:href="#au"/></g><path d="M180 0v-1490h190v1322h690V0H180" id="aS"/><g id="D"><use transform="matrix(0.010850694444444444,0,0,0.010850694444444444,0,0)" xlink:href="#aS"/><use transform="matrix(0.010850694444444444,0,0,0.010850694444444444,12.565104166666666,0)" xlink:href="#F"/><use transform="matrix(0.010850694444444444,0,0,0.010850694444444444,25.889756944444443,0)" xlink:href="#F"/><use transform="matrix(0.010850694444444444,0,0,0.010850694444444444,39.21440972222222,0)" xlink:href="#ar"/></g></defs></g></svg>