<?xml version="1.0" encoding="UTF-8"?>
<svg version="1.1" xmlns="http://www.w3.org/2000/svg" width="256" height="190">
<path d="M0 0 C26.4 0 52.8 0 80 0 C80 3.63 80 7.26 80 11 C84.29 11 88.58 11 93 11 C93 15.29 93 19.58 93 24 C96.63 24 100.26 24 104 24 C104 39.84 104 55.68 104 72 C100.37 72 96.74 72 93 72 C93 75.63 93 79.26 93 83 C88.71 83 84.42 83 80 83 C80 86.96 80 90.92 80 95 C70.43 95 60.86 95 51 95 C51 91.04 51 87.08 51 83 C43.74 83 36.48 83 29 83 C29 86.96 29 90.92 29 95 C19.43 95 9.86 95 0 95 C0 91.04 0 87.08 0 83 C-4.29 83 -8.58 83 -13 83 C-13 79.37 -13 75.74 -13 72 C-16.63 72 -20.26 72 -24 72 C-24 56.16 -24 40.32 -24 24 C-20.37 24 -16.74 24 -13 24 C-13 19.71 -13 15.42 -13 11 C-8.71 11 -4.42 11 0 11 C0 7.37 0 3.74 0 0 Z " fill="#78A30C" transform="translate(85,48)"/>
<path d="M0 0 C7.92 0 15.84 0 24 0 C24 16.17 24 32.34 24 49 C-2.4 49 -28.8 49 -56 49 C-56 37.12 -56 25.24 -56 13 C-52.37 13 -48.74 13 -45 13 C-45 16.96 -45 20.92 -45 25 C-40.71 25 -36.42 25 -32 25 C-32 21.04 -32 17.08 -32 13 C-21.44 13 -10.88 13 0 13 C0 8.71 0 4.42 0 0 Z " fill="#FBF176" transform="translate(141,59)"/>
<path d="M0 0 C4.29 0 8.58 0 13 0 C13 4.29 13 8.58 13 13 C16.63 13 20.26 13 24 13 C24 28.84 24 44.68 24 61 C20.37 61 16.74 61 13 61 C13 64.63 13 68.26 13 72 C8.71 72 4.42 72 0 72 C0 75.96 0 79.92 0 84 C-9.57 84 -19.14 84 -29 84 C-29 80.04 -29 76.08 -29 72 C-23.06 72 -17.12 72 -11 72 C-11 68.37 -11 64.74 -11 61 C-7.37 61 -3.74 61 0 61 C0 40.87 0 20.74 0 0 Z " fill="#77A30C" transform="translate(165,59)"/>
<path d="M0 0 C26.4 0 52.8 0 80 0 C80 3.63 80 7.26 80 11 C72.08 11 64.16 11 56 11 C56 15.29 56 19.58 56 24 C45.44 24 34.88 24 24 24 C24 27.96 24 31.92 24 36 C19.71 36 15.42 36 11 36 C11 32.04 11 28.08 11 24 C3.08 24 -4.84 24 -13 24 C-13 19.71 -13 15.42 -13 11 C-8.71 11 -4.42 11 0 11 C0 7.37 0 3.74 0 0 Z " fill="#7AA50D" transform="translate(85,48)"/>
<path d="M0 0 C26.4 0 52.8 0 80 0 C80 3.96 80 7.92 80 12 C76.37 12 72.74 12 69 12 C69 15.63 69 19.26 69 23 C49.86 23 30.72 23 11 23 C11 19.37 11 15.74 11 12 C7.37 12 3.74 12 0 12 C0 8.04 0 4.08 0 0 Z " fill="#C8C909" transform="translate(85,108)"/>
<path d="M0 0 C12.21 0 24.42 0 37 0 C37 8.25 37 16.5 37 25 C32.71 25 28.42 25 24 25 C24 21.04 24 17.08 24 13 C16.08 13 8.16 13 0 13 C0 8.71 0 4.42 0 0 Z " fill="#FAEF69" transform="translate(72,59)"/>
<path d="M0 0 C10.56 0 21.12 0 32 0 C32 4.29 32 8.58 32 13 C21.44 13 10.88 13 0 13 C0 8.71 0 4.42 0 0 Z " fill="#CBCB0C" transform="translate(109,59)"/>
<path d="M0 0 C2.64 0 5.28 0 8 0 C8 1.65 8 3.3 8 5 C10.31 5 12.62 5 15 5 C15 9.62 15 14.24 15 19 C12.69 19 10.38 19 8 19 C8 21.31 8 23.62 8 26 C5.36 26 2.72 26 0 26 C0 23.69 0 21.38 0 19 C-2.31 19 -4.62 19 -7 19 C-7 14.71 -7 10.42 -7 6 C-4.69 6 -2.38 6 0 6 C0 4.02 0 2.04 0 0 Z " fill="#EBBB22" transform="translate(121,77)"/>
<path d="M0 0 C9.57 0 19.14 0 29 0 C29 3.96 29 7.92 29 12 C19.43 12 9.86 12 0 12 C0 8.04 0 4.08 0 0 Z " fill="#5A8A05" transform="translate(136,131)"/>
<path d="M0 0 C9.57 0 19.14 0 29 0 C29 3.96 29 7.92 29 12 C19.43 12 9.86 12 0 12 C0 8.04 0 4.08 0 0 Z " fill="#5B8B05" transform="translate(85,131)"/>
<path d="M0 0 C4.29 0 8.58 0 13 0 C13 4.29 13 8.58 13 13 C8.71 13 4.42 13 0 13 C0 8.71 0 4.42 0 0 Z " fill="#CBCB0C" transform="translate(72,72)"/>
<path d="M0 0 C4.29 0 8.58 0 13 0 C13 4.29 13 8.58 13 13 C8.71 13 4.42 13 0 13 C0 8.71 0 4.42 0 0 Z " fill="#5E8E06" transform="translate(165,59)"/>
<path d="M0 0 C4.29 0 8.58 0 13 0 C13 4.29 13 8.58 13 13 C8.71 13 4.42 13 0 13 C0 8.71 0 4.42 0 0 Z " fill="#5D8E05" transform="translate(72,59)"/>
<path d="M0 0 C4.29 0 8.58 0 13 0 C13 3.96 13 7.92 13 12 C8.71 12 4.42 12 0 12 C0 8.04 0 4.08 0 0 Z " fill="#CBCB0C" transform="translate(165,72)"/>
<path d="M0 0 C4.29 0 8.58 0 13 0 C13 3.96 13 7.92 13 12 C8.71 12 4.42 12 0 12 C0 8.04 0 4.08 0 0 Z " fill="#0E0E0B" transform="translate(141,72)"/>
<path d="M0 0 C4.29 0 8.58 0 13 0 C13 3.96 13 7.92 13 12 C8.71 12 4.42 12 0 12 C0 8.04 0 4.08 0 0 Z " fill="#0E0D0C" transform="translate(96,72)"/>
<path d="M0 0 C2.64 0 5.28 0 8 0 C8 2.31 8 4.62 8 7 C5.36 7 2.72 7 0 7 C0 4.69 0 2.38 0 0 Z " fill="#FDA40B" transform="translate(121,96)"/>
<path d="M0 0 C2.64 0 5.28 0 8 0 C8 2.31 8 4.62 8 7 C5.36 7 2.72 7 0 7 C0 4.69 0 2.38 0 0 Z " fill="#FDCF37" transform="translate(121,89)"/>
<path d="M0 0 C2.64 0 5.28 0 8 0 C8 1.98 8 3.96 8 6 C5.36 6 2.72 6 0 6 C0 4.02 0 2.04 0 0 Z " fill="#FCC30B" transform="translate(121,83)"/>
<path d="M0 0 C2.31 0 4.62 0 7 0 C7 1.98 7 3.96 7 6 C4.69 6 2.38 6 0 6 C0 4.02 0 2.04 0 0 Z " fill="#FD9F07" transform="translate(129,90)"/>
<path d="M0 0 C2.31 0 4.62 0 7 0 C7 1.98 7 3.96 7 6 C4.69 6 2.38 6 0 6 C0 4.02 0 2.04 0 0 Z " fill="#FDA207" transform="translate(114,90)"/>
</svg>
